<?xml version="1.0" encoding="utf-8"?>
<!-- Generator: Adobe Illustrator 16.0.0, SVG Export Plug-In . SVG Version: 6.00 Build 0)  -->
<!DOCTYPE svg PUBLIC "-//W3C//DTD SVG 1.1//EN" "http://www.w3.org/Graphics/SVG/1.1/DTD/svg11.dtd">
<svg version="1.1" id="Layer_1" xmlns="http://www.w3.org/2000/svg" xmlns:xlink="http://www.w3.org/1999/xlink" x="0px" y="0px"
	 width="150px" height="150px" viewBox="0 0 150 150" enable-background="new 0 0 150 150" xml:space="preserve">
<g>
	<path fill="#555555" d="M3.803,48.709l13.156,74.616l71.199,25.916l58.041-48.705l-13.158-74.615L76.273,5.258
		c3.176,5.975,9.568,14.086,22.365,20.861l1.098,6.225l-49.803,8.781L48.835,34.9C64.36,16.481,62.985,3.818,62.093,0.098
		l-0.25-0.093L3.803,48.709z M104.331,95.409l-6.457-35.278l6.41-1.2l7.718,32.446L104.331,95.409z M87.495,62.026l7.381-1.436
		l6.343,35.971l-7.271,2.695L87.495,62.026z M58.113,106.311c0.316-3.609,0.153-4.174,0.153-4.174l-3.9-34.26l30.989-5.464
		l6.562,37.214l-11.188,2.118l-7.7,0.134c0,0-1.677-0.352-2.565,9.799c-1.292,14.764,0.436,14.568,0.21,17.141
		c-0.224,2.574-1.291,3.399-3.541,3.203s-2.887-1.567-2.673-4.015c0.213-2.444,1.885-3.437,3.033-16.549
		c0.744-8.505-2.81-9.433-2.81-9.433s-2.384-1.577-3.04,5.927c-0.349,3.966,0.859,4.575,0.596,7.577
		c-0.183,2.109-1.352,3.52-3.496,3.33c-2.145-0.188-2.99-1.629-2.778-4.059C56.275,111.264,57.763,110.312,58.113,106.311z
		 M50.616,44.998l49.803-8.782l3.416,19.368L54.03,64.367L50.616,44.998z"/>
</g>
</svg>
