<?xml version="1.0" encoding="utf-8"?>
<!-- Generator: Adobe Illustrator 16.0.0, SVG Export Plug-In . SVG Version: 6.00 Build 0)  -->
<!DOCTYPE svg PUBLIC "-//W3C//DTD SVG 1.1//EN" "http://www.w3.org/Graphics/SVG/1.1/DTD/svg11.dtd">
<svg version="1.1" id="Layer_1" xmlns="http://www.w3.org/2000/svg" xmlns:xlink="http://www.w3.org/1999/xlink" x="0px" y="0px"
	 width="150px" height="150px" viewBox="0 0 150 150" enable-background="new 0 0 150 150" xml:space="preserve">
<g>
	<path fill="#555555" d="M62.797,0.122L4.552,48.996l13.202,74.877l71.449,26.007l58.245-48.875l-13.202-74.878L62.797,0.122z
		 M71.543,73.325L35.659,96.252c-0.424,0.271-0.909,0.408-1.395,0.408c-0.428,0-0.856-0.105-1.245-0.319
		c-0.831-0.454-1.347-1.325-1.347-2.272v-7.286c0-0.888,0.454-1.712,1.202-2.187l21.105-13.418L32.863,57.604
		c-0.742-0.477-1.191-1.298-1.191-2.18v-7.21c0-0.947,0.516-1.819,1.347-2.274c0.388-0.211,0.817-0.318,1.245-0.318
		c0.486,0,0.971,0.138,1.395,0.409l35.884,22.928c0.746,0.475,1.197,1.299,1.197,2.184C72.741,72.025,72.289,72.848,71.543,73.325z
		 M119.396,103.202c0,1.431-1.16,2.591-2.594,2.591H80.92c-1.43,0-2.592-1.16-2.592-2.592v-6.539c0-1.434,1.162-2.592,2.592-2.592
		h35.885c1.432,0,2.592,1.16,2.592,2.592V103.202L119.396,103.202z"/>
</g>
</svg>
