<?xml version="1.0" encoding="utf-8"?>
<!-- Generator: Adobe Illustrator 16.0.0, SVG Export Plug-In . SVG Version: 6.00 Build 0)  -->
<!DOCTYPE svg PUBLIC "-//W3C//DTD SVG 1.1//EN" "http://www.w3.org/Graphics/SVG/1.1/DTD/svg11.dtd">
<svg version="1.1" id="Layer_1" xmlns="http://www.w3.org/2000/svg" xmlns:xlink="http://www.w3.org/1999/xlink" x="0px" y="0px"
	 width="150px" height="150px" viewBox="0 0 150 150" enable-background="new 0 0 150 150" xml:space="preserve">
<g>
	<path fill="#555555" d="M132.923,26.398L61.87,0.537L3.948,49.139l13.129,74.464l71.052,25.861l57.924-48.604L132.923,26.398z
		 M74.624,125.519l-0.9-4.898l10.958,0.923l0.812,4.912L74.624,125.519z M64.693,115.45l-0.827-4.95l30.164,2.661l0.801,4.869
		L64.693,115.45z M90.762,95.368l2.175,12.336l-29.909-2.47l-0.85-4.816c-12.202-3.374-22.02-13.433-24.365-26.73
		c-3.248-18.421,9.051-35.978,27.464-39.223c18.417-3.248,35.978,9.043,39.227,27.467C106.848,75.226,101.066,88.027,90.762,95.368z
		"/>
</g>
</svg>
