<?xml version="1.0" encoding="UTF-8" standalone="no"?>
<svg width="80px" height="84px" viewBox="0 0 80 84" version="1.1" xmlns="http://www.w3.org/2000/svg" xmlns:xlink="http://www.w3.org/1999/xlink" xmlns:sketch="http://www.bohemiancoding.com/sketch/ns">
    <!-- Generator: Sketch 3.1.1 (8761) - http://www.bohemiancoding.com/sketch -->
    <title>closed</title>
    <desc>Created with Sketch.</desc>
    <defs></defs>
    <g id="Page-1" stroke="none" stroke-width="1" fill="none" fill-rule="evenodd" sketch:type="MSPage">
        <g id="logo-header" sketch:type="MSLayerGroup" fill="#DDDDDD">
            <path d="M79.2228571,52.8932727 L72.4990476,14.658 L32.2952381,0 L-0.476190476,27.5615455 L4.79428571,57.5075455 L6.95428571,69.7887273 L47.1561905,84.4543636 L79.192381,57.5094545 L79.2209524,57.4865455 L79.9238095,56.8909091 L79.2228571,52.8932727 Z M57.3485714,37.6339091 C55.5714286,39.7281818 53.1828571,41.6811818 50.2495238,43.4356364 C49.6933333,43.7678182 49.1142857,44.0942727 48.5219048,44.4111818 C48.44,45.0812727 48.36,45.6730909 48.2838095,46.2305455 C47.8704762,49.3156364 47.6209524,51.1750909 47.9657143,57.4693636 C47.9657143,57.4846364 47.9638095,57.4960909 47.9638095,57.5075455 C47.9961905,58.3933636 47.6019048,59.1665455 46.8933333,59.5922727 C46.5714286,59.7850909 46.1942857,59.8958182 45.7771429,59.9320909 C45.12,59.976 44.5333333,59.7927273 44.0780952,59.3918182 C43.6171429,58.9794545 43.3428571,58.3876364 43.3085714,57.7213636 C43.3047619,57.645 43.3028571,57.5839091 43.2990476,57.5094545 C43.0285714,52.3835455 43.1866667,50.7837273 43.5009524,47.67 C43.5314286,47.3626364 43.5619048,47.0438182 43.592381,46.6982727 C42.9466667,46.9655455 42.2819048,47.2213636 41.6095238,47.4638182 C39.4742857,48.2732727 37.3695238,48.9452727 35.3485714,49.4626364 C36.0590476,52.4102727 36.4685714,54.1876364 36.8704762,57.5094545 C36.9752381,58.3819091 37.08,59.3383636 37.1904762,60.48 C37.28,61.3944545 36.8933333,62.1867273 36.1219048,62.6468182 C35.8247619,62.8224545 35.4704762,62.9522727 35.072381,63.0305455 C34.2647619,63.1851818 33.7257143,62.937 33.4152381,62.7040909 C32.9238095,62.3299091 32.6171429,61.7018182 32.5504762,60.921 C32.4209524,59.577 32.2990476,58.4697273 32.1771429,57.5094545 C31.8095238,54.642 31.4342857,53.1204545 30.8342857,50.6882727 L30.752381,50.3713636 C29.1219048,50.5832727 27.5866667,50.6596364 26.1866667,50.5928182 C21.3161905,50.3331818 18.7428571,48.3744545 17.4380952,46.7708182 C14.5885714,43.2848182 15.2038095,38.6056364 16.9828571,35.7324545 C17.712381,34.5621818 18.6609524,33.6057273 19.7333333,32.9642727 C21.2533333,32.0555455 22.9409524,31.7844545 24.6171429,32.1796364 C26.7733333,32.6893636 29.9028571,34.5889091 32.5771429,40.7285455 C33.1409524,42.0286364 33.6628571,43.4470909 34.1333333,44.9590909 C35.8590476,44.5142727 37.7428571,43.9148182 39.7390476,43.1721818 L39.7466667,43.1645455 L40.007619,43.0690909 C41.5161905,42.525 42.927619,41.9427273 44.207619,41.349 C44.6628571,38.3708182 45.2914286,35.6809091 46.0742857,33.3594545 C47.6019048,28.8444545 49.7428571,25.6600909 52.2685714,24.1519091 C53.032381,23.6918182 53.8304762,23.3959091 54.6342857,23.2756364 C57.4152381,22.8460909 59.8685714,24.5738182 60.6038095,27.4870909 C61.3885714,30.5511818 60.1980952,34.2490909 57.3485714,37.6339091 Z M55.4380952,27.8765455 C55.1428571,27.9166364 54.9066667,28.014 54.6609524,28.161 C53.9428571,28.5905455 52.1009524,30.1006364 50.4952381,34.8485455 C50.1428571,35.9119091 49.8190476,37.0879091 49.5314286,38.3517273 C51.2533333,37.1680909 52.6819048,35.9138182 53.7809524,34.6099091 C56.5828571,31.2919091 56.1904762,29.0468182 56.087619,28.6325455 C55.9619048,28.1209091 55.7428571,27.867 55.4380952,27.8765455 Z M23.552381,36.7270909 C23.392381,36.6908182 23.2285714,36.6755455 23.0704762,36.6793636 C22.76,36.6927273 22.4495238,36.7862727 22.1485714,36.9676364 C21.5542857,37.3189091 21.1371429,37.8954545 20.9409524,38.2085455 C20.0095238,39.6995455 19.647619,42.0954545 21.047619,43.8079091 C21.72,44.6364545 23.8552381,46.41 29.5028571,45.8200909 C27.8114286,40.5910909 25.6133333,37.2158182 23.552381,36.7270909 Z" id="Path" sketch:type="MSShapeGroup"></path>
        </g>
    </g>
</svg>