<?xml version="1.0" encoding="utf-8"?>
<!-- Generator: Adobe Illustrator 16.0.0, SVG Export Plug-In . SVG Version: 6.00 Build 0)  -->
<!DOCTYPE svg PUBLIC "-//W3C//DTD SVG 1.1//EN" "http://www.w3.org/Graphics/SVG/1.1/DTD/svg11.dtd">
<svg version="1.1" id="Layer_1" xmlns="http://www.w3.org/2000/svg" xmlns:xlink="http://www.w3.org/1999/xlink" x="0px" y="0px"
	 width="182px" height="50px" viewBox="0 0 182 50" enable-background="new 0 0 182 50" xml:space="preserve">
<g>
	<g>
		<path fill="#333333" d="M56.52,12.003h8.085c0.938,0,1.883,0.067,2.833,0.2c0.95,0.132,1.802,0.397,2.558,0.796
			c0.755,0.398,1.368,0.954,1.838,1.669c0.469,0.715,0.704,1.664,0.704,2.848c0,1.226-0.342,2.241-1.026,3.047
			c-0.684,0.808-1.588,1.384-2.71,1.731v0.062c0.714,0.102,1.363,0.301,1.945,0.597c0.582,0.296,1.082,0.673,1.5,1.133
			c0.418,0.459,0.74,0.996,0.964,1.608c0.225,0.613,0.337,1.266,0.337,1.96c0,1.144-0.245,2.098-0.735,2.863
			c-0.49,0.766-1.123,1.384-1.899,1.854c-0.776,0.47-1.649,0.807-2.619,1.011s-1.935,0.306-2.894,0.306H56.52V12.003z
			 M61.297,20.671h3.461c0.367,0,0.73-0.041,1.087-0.123c0.357-0.081,0.678-0.214,0.965-0.398c0.286-0.185,0.515-0.429,0.689-0.736
			c0.173-0.306,0.26-0.673,0.26-1.102c0-0.45-0.097-0.823-0.291-1.119c-0.194-0.295-0.444-0.525-0.75-0.689
			c-0.306-0.164-0.653-0.28-1.041-0.352c-0.388-0.072-0.766-0.107-1.133-0.107h-3.247V20.671z M61.297,29.646h4.288
			c0.367,0,0.74-0.041,1.118-0.123c0.377-0.082,0.72-0.225,1.026-0.429c0.306-0.203,0.556-0.47,0.75-0.797
			c0.194-0.326,0.291-0.724,0.291-1.194c0-0.509-0.128-0.923-0.383-1.24c-0.255-0.316-0.577-0.556-0.965-0.72
			s-0.807-0.275-1.256-0.337c-0.449-0.061-0.868-0.092-1.256-0.092h-3.614V29.646z"/>
		<path fill="#333333" d="M75.698,18.803h4.594v2.389h0.062c0.49-0.918,1.072-1.608,1.746-2.067c0.674-0.459,1.521-0.69,2.542-0.69
			c0.265,0,0.53,0.011,0.796,0.031c0.265,0.021,0.511,0.062,0.735,0.123v4.196c-0.327-0.103-0.648-0.178-0.965-0.23
			c-0.317-0.051-0.648-0.077-0.995-0.077c-0.878,0-1.573,0.123-2.083,0.368c-0.511,0.245-0.904,0.587-1.18,1.026
			c-0.276,0.439-0.455,0.965-0.536,1.577c-0.082,0.613-0.123,1.288-0.123,2.022v6.217h-4.594V18.803z"/>
		<path fill="#333333" d="M87.263,14.117c0-0.735,0.26-1.363,0.781-1.883c0.52-0.521,1.148-0.782,1.883-0.782
			c0.735,0,1.364,0.26,1.883,0.782c0.521,0.521,0.781,1.148,0.781,1.883S92.331,15.48,91.811,16
			c-0.52,0.521-1.148,0.782-1.883,0.782c-0.734,0-1.363-0.261-1.883-0.782C87.523,15.48,87.263,14.852,87.263,14.117z M87.63,18.803
			h4.594v14.885H87.63V18.803z"/>
		<path fill="#333333" d="M110.666,32.432c0,2.818-0.71,4.957-2.13,6.416c-1.42,1.46-3.578,2.19-6.478,2.19
			c-1.327,0-2.634-0.148-3.92-0.444c-1.287-0.296-2.472-0.872-3.553-1.729l2.542-3.799c0.715,0.593,1.464,1.062,2.251,1.41
			c0.785,0.347,1.647,0.521,2.588,0.521c1.409,0,2.444-0.343,3.108-1.026c0.663-0.685,0.996-1.558,0.996-2.619v-1.439h-0.062
			c-0.531,0.715-1.19,1.221-1.976,1.517c-0.786,0.296-1.525,0.443-2.22,0.443c-1.103,0-2.104-0.188-3.003-0.566
			c-0.897-0.378-1.669-0.908-2.311-1.592c-0.645-0.684-1.139-1.495-1.486-2.436c-0.348-0.938-0.521-1.971-0.521-3.093
			c0-0.98,0.159-1.94,0.476-2.879c0.315-0.939,0.767-1.766,1.348-2.48s1.291-1.291,2.128-1.73c0.838-0.439,1.787-0.659,2.849-0.659
			c0.653,0,1.251,0.072,1.792,0.214c0.54,0.144,1.026,0.327,1.455,0.551c0.429,0.225,0.796,0.476,1.103,0.751
			c0.306,0.276,0.551,0.546,0.734,0.812h0.062v-1.96h4.228V32.432z M99.088,26.153c0,0.49,0.093,0.954,0.276,1.395
			c0.183,0.438,0.443,0.826,0.78,1.163s0.725,0.608,1.163,0.812c0.439,0.204,0.925,0.306,1.456,0.306
			c0.511,0,0.989-0.102,1.439-0.306c0.448-0.203,0.842-0.475,1.179-0.812s0.597-0.725,0.781-1.163
			c0.184-0.44,0.275-0.904,0.275-1.395s-0.092-0.954-0.275-1.394c-0.185-0.438-0.444-0.826-0.781-1.164
			c-0.337-0.337-0.73-0.607-1.179-0.812c-0.45-0.204-0.929-0.307-1.439-0.307c-0.531,0-1.017,0.103-1.456,0.307
			c-0.438,0.205-0.826,0.475-1.163,0.812c-0.337,0.337-0.598,0.725-0.78,1.164C99.181,25.2,99.088,25.663,99.088,26.153z"/>
		<path fill="#333333" d="M118.416,10.534v10.291h0.062c0.103-0.286,0.275-0.572,0.521-0.858c0.245-0.285,0.541-0.541,0.889-0.766
			c0.347-0.224,0.755-0.408,1.226-0.551c0.468-0.143,0.979-0.214,1.531-0.214c1.163,0,2.103,0.179,2.817,0.536
			c0.714,0.358,1.271,0.853,1.669,1.486c0.397,0.633,0.669,1.377,0.812,2.236c0.143,0.857,0.214,1.787,0.214,2.787v8.208h-4.594
			v-7.289c0-0.428-0.015-0.873-0.046-1.333c-0.031-0.458-0.123-0.882-0.275-1.271c-0.153-0.387-0.389-0.704-0.705-0.949
			s-0.771-0.368-1.362-0.368c-0.593,0-1.072,0.108-1.439,0.322c-0.368,0.214-0.648,0.5-0.843,0.857
			c-0.194,0.358-0.321,0.761-0.383,1.21c-0.061,0.448-0.092,0.918-0.092,1.409v7.411h-4.594V10.534H118.416z"/>
		<path fill="#333333" d="M140.993,22.478h-4.042v4.962c0,0.409,0.021,0.781,0.062,1.118s0.133,0.628,0.275,0.873
			s0.362,0.434,0.659,0.566c0.295,0.134,0.688,0.199,1.179,0.199c0.244,0,0.566-0.025,0.965-0.077
			c0.398-0.051,0.699-0.168,0.902-0.352v3.828c-0.51,0.184-1.04,0.307-1.592,0.367c-0.551,0.062-1.093,0.093-1.623,0.093
			c-0.776,0-1.49-0.082-2.145-0.245c-0.653-0.164-1.225-0.424-1.715-0.781c-0.489-0.357-0.872-0.822-1.148-1.394
			c-0.275-0.571-0.414-1.266-0.414-2.082v-7.076h-2.939v-3.675h2.939v-4.411h4.595v4.411h4.042V22.478z"/>
		<path fill="#333333" d="M143.545,10.534h4.594v9.862h0.062c0.53-0.715,1.209-1.22,2.036-1.516c0.827-0.296,1.72-0.445,2.68-0.445
			c1.062,0,2.012,0.22,2.849,0.659c0.837,0.439,1.547,1.026,2.129,1.76c0.581,0.736,1.029,1.578,1.347,2.527
			c0.317,0.949,0.475,1.944,0.475,2.986c0,1.122-0.174,2.154-0.521,3.094c-0.347,0.938-0.843,1.75-1.485,2.435
			c-0.644,0.684-1.414,1.215-2.312,1.592c-0.898,0.378-1.898,0.567-3.001,0.567c-0.531,0-1.031-0.072-1.501-0.215
			c-0.47-0.144-0.903-0.326-1.302-0.551s-0.745-0.476-1.041-0.751s-0.536-0.546-0.72-0.812h-0.061v1.96h-4.228V10.534z
			 M147.772,26.245c0,1.124,0.32,2.032,0.964,2.726c0.643,0.695,1.547,1.042,2.711,1.042c1.163,0,2.067-0.347,2.71-1.042
			c0.644-0.693,0.965-1.602,0.965-2.726c0-1.123-0.321-2.032-0.965-2.726c-0.643-0.694-1.547-1.042-2.71-1.042
			c-1.164,0-2.068,0.348-2.711,1.042C148.093,24.213,147.772,25.123,147.772,26.245z"/>
		<path fill="#333333" d="M161.618,14.117c0-0.735,0.26-1.363,0.78-1.883c0.521-0.521,1.148-0.782,1.885-0.782
			c0.734,0,1.362,0.26,1.883,0.782c0.521,0.521,0.781,1.148,0.781,1.883s-0.261,1.363-0.781,1.883s-1.148,0.782-1.883,0.782
			c-0.736,0-1.363-0.261-1.885-0.782C161.878,15.48,161.618,14.852,161.618,14.117z M161.986,18.803h4.594v14.885h-4.594V18.803z"/>
		<path fill="#333333" d="M179.556,22.478h-4.043v4.962c0,0.409,0.021,0.781,0.062,1.118c0.04,0.337,0.132,0.628,0.274,0.873
			s0.363,0.434,0.659,0.566c0.295,0.134,0.689,0.199,1.18,0.199c0.244,0,0.566-0.025,0.964-0.077c0.398-0.051,0.7-0.168,0.903-0.352
			v3.828c-0.511,0.184-1.041,0.307-1.592,0.367c-0.552,0.062-1.093,0.093-1.623,0.093c-0.777,0-1.491-0.082-2.145-0.245
			c-0.653-0.164-1.225-0.424-1.715-0.781s-0.873-0.822-1.148-1.394s-0.414-1.266-0.414-2.082v-7.076h-2.94v-3.675h2.94v-4.411h4.594
			v4.411h4.043V22.478z"/>
	</g>
</g>
<g>
	<path fill="#FFFFFF" d="M33.085,13.923c-0.468,0.071-0.931,0.242-1.376,0.508c-1.468,0.875-2.713,2.722-3.601,5.341
		c-0.456,1.348-0.821,2.907-1.085,4.635c-0.745,0.344-1.566,0.682-2.443,0.997l-0.152,0.055l-0.004,0.006
		c-1.161,0.431-2.256,0.778-3.26,1.037c-0.273-0.877-0.577-1.7-0.905-2.455c-1.555-3.561-3.375-4.662-4.628-4.958
		c-0.976-0.23-1.957-0.072-2.84,0.455c-0.623,0.373-1.176,0.926-1.6,1.606c-1.035,1.666-1.392,4.381,0.265,6.404
		c0.759,0.929,2.255,2.066,5.086,2.217c0.814,0.039,1.707-0.006,2.655-0.13l0.047,0.184c0.349,1.412,0.566,2.294,0.78,3.958
		c0.071,0.557,0.142,1.199,0.217,1.979c0.038,0.451,0.217,0.816,0.502,1.033c0.181,0.136,0.494,0.279,0.964,0.189
		c0.231-0.046,0.437-0.121,0.61-0.223c0.448-0.268,0.673-0.726,0.621-1.257c-0.063-0.661-0.125-1.216-0.186-1.723
		c-0.233-1.928-0.472-2.958-0.885-4.668c1.176-0.299,2.4-0.689,3.641-1.159c0.39-0.141,0.777-0.289,1.152-0.443
		c-0.018,0.199-0.036,0.385-0.054,0.562c-0.182,1.806-0.274,2.735-0.118,5.708c0.002,0.044,0.003,0.079,0.006,0.124
		c0.02,0.386,0.179,0.729,0.447,0.968c0.265,0.232,0.606,0.34,0.988,0.314c0.243-0.021,0.461-0.086,0.649-0.197
		c0.412-0.246,0.642-0.695,0.623-1.209c0-0.007,0.002-0.014,0.001-0.021c-0.2-3.651-0.055-4.729,0.186-6.52
		c0.043-0.324,0.089-0.668,0.138-1.056c0.345-0.184,0.681-0.372,1.004-0.564l0,0c1.706-1.018,3.095-2.151,4.128-3.366
		c1.656-1.963,2.349-4.108,1.896-5.889C36.128,14.678,34.702,13.675,33.085,13.923z M13.554,25.837
		c-0.814-0.993-0.604-2.383-0.062-3.248c0.114-0.182,0.356-0.517,0.702-0.72c0.175-0.105,0.355-0.16,0.536-0.167
		c0.092-0.002,0.187,0.007,0.28,0.028c1.198,0.283,2.476,2.24,3.461,5.273C15.186,27.347,13.944,26.318,13.554,25.837z
		 M32.586,20.502c-0.64,0.756-1.47,1.486-2.472,2.171c0.167-0.734,0.356-1.416,0.562-2.033c0.933-2.755,2.003-3.63,2.42-3.878
		c0.143-0.086,0.281-0.142,0.452-0.166c0.176-0.007,0.304,0.141,0.379,0.438C33.988,17.276,34.215,18.578,32.586,20.502z"/>
	<path fill="#F7941E" d="M33.549,16.596c-0.171,0.023-0.309,0.079-0.452,0.166c-0.417,0.248-1.487,1.124-2.42,3.878
		c-0.206,0.617-0.395,1.299-0.562,2.033c1.001-0.686,1.832-1.415,2.472-2.171c1.629-1.924,1.401-3.226,1.341-3.468
		C33.853,16.737,33.725,16.589,33.549,16.596z"/>
	<path fill="#F7941E" d="M47.376,31.107l-3.909-22.18L20.092,0.425L1.039,16.412l3.064,17.372l1.257,7.125l23.373,8.506
		L47.36,33.783l0.017-0.014l0.409-0.343L47.376,31.107z M34.66,22.256c-1.033,1.215-2.422,2.349-4.128,3.366l0,0
		c-0.324,0.192-0.659,0.381-1.004,0.564c-0.048,0.388-0.094,0.731-0.138,1.056c-0.241,1.79-0.386,2.868-0.186,6.52
		c0,0.008-0.002,0.015-0.001,0.021c0.019,0.514-0.211,0.963-0.623,1.209c-0.188,0.111-0.406,0.177-0.649,0.197
		c-0.382,0.025-0.724-0.082-0.988-0.314c-0.268-0.238-0.427-0.582-0.447-0.968c-0.002-0.045-0.003-0.08-0.006-0.124
		c-0.156-2.973-0.064-3.902,0.118-5.708c0.018-0.178,0.036-0.363,0.054-0.562c-0.375,0.154-0.762,0.303-1.152,0.443
		c-1.241,0.47-2.464,0.86-3.641,1.159c0.413,1.71,0.652,2.74,0.885,4.668c0.061,0.507,0.122,1.062,0.186,1.723
		c0.052,0.531-0.173,0.989-0.621,1.257c-0.173,0.102-0.379,0.177-0.61,0.223c-0.47,0.09-0.783-0.054-0.964-0.189
		c-0.286-0.217-0.464-0.582-0.502-1.033c-0.075-0.78-0.146-1.423-0.217-1.979c-0.214-1.664-0.431-2.546-0.78-3.958l-0.047-0.184
		c-0.948,0.124-1.841,0.169-2.655,0.13c-2.832-0.15-4.327-1.288-5.086-2.217c-1.656-2.023-1.3-4.738-0.265-6.404
		c0.424-0.68,0.977-1.233,1.6-1.606c0.884-0.526,1.865-0.685,2.84-0.455c1.253,0.296,3.073,1.397,4.628,4.958
		c0.328,0.754,0.631,1.578,0.905,2.455c1.003-0.259,2.099-0.605,3.26-1.037l0.004-0.006l0.152-0.055
		c0.877-0.315,1.698-0.653,2.443-0.997c0.265-1.728,0.63-3.288,1.085-4.635c0.888-2.62,2.133-4.466,3.601-5.341
		c0.445-0.267,0.908-0.438,1.376-0.508c1.617-0.249,3.043,0.754,3.47,2.443C37.008,18.147,36.316,20.293,34.66,22.256z"/>
	<path fill="#F7941E" d="M15.01,21.73c-0.094-0.021-0.188-0.031-0.28-0.028c-0.18,0.007-0.36,0.062-0.536,0.167
		c-0.345,0.203-0.588,0.538-0.702,0.72c-0.542,0.865-0.752,2.255,0.062,3.248c0.39,0.481,1.632,1.509,4.917,1.167
		C17.485,23.971,16.208,22.014,15.01,21.73z"/>
</g>
</svg>
